<mxfile host="Electron" agent="Mozilla/5.0 (Windows NT 10.0; Win64; x64) AppleWebKit/537.36 (KHTML, like Gecko) draw.io/26.1.1 Chrome/132.0.6834.210 Electron/34.3.3 Safari/537.36" version="26.1.1">
  <diagram name="Page-1" id="H9BALQmSKk2_eh5CyRb_">
    <mxGraphModel dx="1434" dy="836" grid="1" gridSize="10" guides="1" tooltips="1" connect="1" arrows="1" fold="1" page="1" pageScale="1" pageWidth="980" pageHeight="1390" math="0" shadow="0">
      <root>
        <mxCell id="0" />
        <mxCell id="1" parent="0" />
        <mxCell id="RNTpO45LrfVcoNAqFctI-1" value="" style="image;aspect=fixed;html=1;points=[];align=center;fontSize=12;image=img/lib/azure2/ai_machine_learning/Bot_Services.svg;" parent="1" vertex="1">
          <mxGeometry x="490" y="31" width="68" height="68" as="geometry" />
        </mxCell>
        <mxCell id="1YBY1b2MyCDmBcefB1Ka-2" style="edgeStyle=orthogonalEdgeStyle;rounded=0;orthogonalLoop=1;jettySize=auto;html=1;" edge="1" parent="1" source="RNTpO45LrfVcoNAqFctI-2" target="1YBY1b2MyCDmBcefB1Ka-1">
          <mxGeometry relative="1" as="geometry" />
        </mxCell>
        <mxCell id="RNTpO45LrfVcoNAqFctI-2" value="" style="image;aspect=fixed;html=1;points=[];align=center;fontSize=12;image=img/lib/azure2/ai_machine_learning/Speech_Services.svg;" parent="1" vertex="1">
          <mxGeometry x="490" y="170" width="68" height="68" as="geometry" />
        </mxCell>
        <mxCell id="RNTpO45LrfVcoNAqFctI-4" value="" style="verticalLabelPosition=bottom;html=1;verticalAlign=top;align=center;strokeColor=none;fillColor=#00BEF2;shape=mxgraph.azure.sql_database_sql_azure;" parent="1" vertex="1">
          <mxGeometry x="260" y="566" width="47.5" height="50" as="geometry" />
        </mxCell>
        <mxCell id="RNTpO45LrfVcoNAqFctI-28" value="" style="edgeStyle=orthogonalEdgeStyle;rounded=0;orthogonalLoop=1;jettySize=auto;html=1;" parent="1" source="RNTpO45LrfVcoNAqFctI-5" target="RNTpO45LrfVcoNAqFctI-27" edge="1">
          <mxGeometry relative="1" as="geometry" />
        </mxCell>
        <mxCell id="RNTpO45LrfVcoNAqFctI-5" value="" style="image;aspect=fixed;html=1;points=[];align=center;fontSize=12;image=img/lib/azure2/containers/App_Services.svg;" parent="1" vertex="1">
          <mxGeometry x="494" y="420" width="64" height="64" as="geometry" />
        </mxCell>
        <mxCell id="RNTpO45LrfVcoNAqFctI-6" value="" style="image;aspect=fixed;html=1;points=[];align=center;fontSize=12;image=img/lib/azure2/security/Key_Vaults.svg;" parent="1" vertex="1">
          <mxGeometry x="246" y="370" width="68" height="68" as="geometry" />
        </mxCell>
        <mxCell id="RNTpO45LrfVcoNAqFctI-9" value="" style="verticalLabelPosition=bottom;html=1;verticalAlign=top;align=center;strokeColor=none;fillColor=#00BEF2;shape=mxgraph.azure.user;" parent="1" vertex="1">
          <mxGeometry x="260" y="40" width="47.5" height="50" as="geometry" />
        </mxCell>
        <mxCell id="RNTpO45LrfVcoNAqFctI-10" style="edgeStyle=orthogonalEdgeStyle;rounded=0;orthogonalLoop=1;jettySize=auto;html=1;exitX=0.87;exitY=0.65;exitDx=0;exitDy=0;exitPerimeter=0;entryX=-0.035;entryY=0.615;entryDx=0;entryDy=0;entryPerimeter=0;" parent="1" source="RNTpO45LrfVcoNAqFctI-9" target="RNTpO45LrfVcoNAqFctI-1" edge="1">
          <mxGeometry relative="1" as="geometry" />
        </mxCell>
        <mxCell id="RNTpO45LrfVcoNAqFctI-11" value="&lt;font style=&quot;font-size: 14px;&quot;&gt;User (Voice Input)&lt;/font&gt;" style="text;html=1;align=center;verticalAlign=middle;resizable=0;points=[];autosize=1;strokeColor=none;fillColor=none;" parent="1" vertex="1">
          <mxGeometry x="210" y="99" width="140" height="30" as="geometry" />
        </mxCell>
        <mxCell id="RNTpO45LrfVcoNAqFctI-13" style="edgeStyle=orthogonalEdgeStyle;rounded=0;orthogonalLoop=1;jettySize=auto;html=1;entryX=0.494;entryY=0.026;entryDx=0;entryDy=0;entryPerimeter=0;" parent="1" source="RNTpO45LrfVcoNAqFctI-1" target="RNTpO45LrfVcoNAqFctI-2" edge="1">
          <mxGeometry relative="1" as="geometry" />
        </mxCell>
        <mxCell id="RNTpO45LrfVcoNAqFctI-14" value="&lt;font style=&quot;font-size: 14px;&quot;&gt;Azure speech Service&lt;/font&gt;" style="text;html=1;align=center;verticalAlign=middle;resizable=0;points=[];autosize=1;strokeColor=none;fillColor=none;" parent="1" vertex="1">
          <mxGeometry x="558" y="189" width="160" height="30" as="geometry" />
        </mxCell>
        <mxCell id="RNTpO45LrfVcoNAqFctI-15" value="&lt;font style=&quot;font-size: 14px;&quot;&gt;Azure Bot&amp;nbsp;&lt;/font&gt;&lt;span style=&quot;font-size: 14px; background-color: transparent; color: light-dark(rgb(0, 0, 0), rgb(255, 255, 255));&quot;&gt;Service&lt;/span&gt;" style="text;html=1;align=center;verticalAlign=middle;resizable=0;points=[];autosize=1;strokeColor=none;fillColor=none;" parent="1" vertex="1">
          <mxGeometry x="513" y="90" width="140" height="30" as="geometry" />
        </mxCell>
        <mxCell id="RNTpO45LrfVcoNAqFctI-18" value="&lt;font style=&quot;font-size: 14px;&quot;&gt;Conversational Language (CLU)&lt;/font&gt;" style="text;html=1;align=center;verticalAlign=middle;resizable=0;points=[];autosize=1;strokeColor=none;fillColor=none;" parent="1" vertex="1">
          <mxGeometry x="558" y="288" width="220" height="30" as="geometry" />
        </mxCell>
        <mxCell id="RNTpO45LrfVcoNAqFctI-19" style="edgeStyle=orthogonalEdgeStyle;rounded=0;orthogonalLoop=1;jettySize=auto;html=1;entryX=0.462;entryY=0.012;entryDx=0;entryDy=0;entryPerimeter=0;" parent="1" target="RNTpO45LrfVcoNAqFctI-5" edge="1">
          <mxGeometry relative="1" as="geometry">
            <mxPoint x="524" y="358" as="sourcePoint" />
          </mxGeometry>
        </mxCell>
        <mxCell id="RNTpO45LrfVcoNAqFctI-20" value="&lt;font style=&quot;font-size: 14px;&quot;&gt;Azure App Service&lt;/font&gt;" style="text;html=1;align=center;verticalAlign=middle;resizable=0;points=[];autosize=1;strokeColor=none;fillColor=none;" parent="1" vertex="1">
          <mxGeometry x="550" y="418" width="140" height="30" as="geometry" />
        </mxCell>
        <mxCell id="RNTpO45LrfVcoNAqFctI-22" value="&lt;font style=&quot;font-size: 14px;&quot;&gt;Azure SQL DB&lt;/font&gt;" style="text;html=1;align=center;verticalAlign=middle;resizable=0;points=[];autosize=1;strokeColor=none;fillColor=none;" parent="1" vertex="1">
          <mxGeometry x="225" y="536" width="110" height="30" as="geometry" />
        </mxCell>
        <mxCell id="RNTpO45LrfVcoNAqFctI-24" value="&lt;font style=&quot;font-size: 14px;&quot;&gt;Azure Key Vault&lt;/font&gt;" style="text;html=1;align=center;verticalAlign=middle;resizable=0;points=[];autosize=1;strokeColor=none;fillColor=none;" parent="1" vertex="1">
          <mxGeometry x="223.75" y="328" width="120" height="30" as="geometry" />
        </mxCell>
        <mxCell id="RNTpO45LrfVcoNAqFctI-27" value="&lt;font style=&quot;font-size: 14px;&quot;&gt;Validate data saved to DB&lt;/font&gt;" style="whiteSpace=wrap;html=1;verticalAlign=top;labelBackgroundColor=default;" parent="1" vertex="1">
          <mxGeometry x="466" y="569" width="120" height="44" as="geometry" />
        </mxCell>
        <mxCell id="RNTpO45LrfVcoNAqFctI-38" style="edgeStyle=orthogonalEdgeStyle;rounded=0;orthogonalLoop=1;jettySize=auto;html=1;exitX=0;exitY=0.5;exitDx=0;exitDy=0;entryX=0.69;entryY=0.5;entryDx=0;entryDy=0;entryPerimeter=0;" parent="1" source="RNTpO45LrfVcoNAqFctI-27" target="RNTpO45LrfVcoNAqFctI-4" edge="1">
          <mxGeometry relative="1" as="geometry" />
        </mxCell>
        <mxCell id="RNTpO45LrfVcoNAqFctI-42" value="" style="endArrow=classic;startArrow=classic;html=1;rounded=0;exitX=0.976;exitY=0.429;exitDx=0;exitDy=0;exitPerimeter=0;entryX=0.367;entryY=0.023;entryDx=0;entryDy=0;entryPerimeter=0;" parent="1" source="RNTpO45LrfVcoNAqFctI-6" target="RNTpO45LrfVcoNAqFctI-27" edge="1">
          <mxGeometry width="50" height="50" relative="1" as="geometry">
            <mxPoint x="400" y="470" as="sourcePoint" />
            <mxPoint x="520" y="560" as="targetPoint" />
            <Array as="points">
              <mxPoint x="420" y="399" />
              <mxPoint x="420" y="510" />
              <mxPoint x="510" y="510" />
            </Array>
          </mxGeometry>
        </mxCell>
        <mxCell id="RNTpO45LrfVcoNAqFctI-44" value="&lt;font style=&quot;font-size: 14px;&quot;&gt;Get DB&lt;/font&gt;&lt;div&gt;&lt;font size=&quot;3&quot;&gt;Credentials&lt;/font&gt;&lt;/div&gt;&lt;div&gt;&lt;font size=&quot;3&quot;&gt;securely&lt;/font&gt;&lt;/div&gt;" style="text;html=1;align=center;verticalAlign=middle;resizable=0;points=[];autosize=1;strokeColor=none;fillColor=none;" parent="1" vertex="1">
          <mxGeometry x="314" y="398" width="100" height="70" as="geometry" />
        </mxCell>
        <mxCell id="1YBY1b2MyCDmBcefB1Ka-1" value="" style="image;aspect=fixed;html=1;points=[];align=center;fontSize=12;image=img/lib/azure2/ai_machine_learning/Language_Services.svg;" vertex="1" parent="1">
          <mxGeometry x="490" y="290" width="68" height="68" as="geometry" />
        </mxCell>
      </root>
    </mxGraphModel>
  </diagram>
</mxfile>
